<?xml version="1.0" encoding="UTF-8" standalone="no"?>
<svg
   xmlns:dc="http://purl.org/dc/elements/1.1/"
   xmlns:cc="http://creativecommons.org/ns#"
   xmlns:rdf="http://www.w3.org/1999/02/22-rdf-syntax-ns#"
   xmlns:svg="http://www.w3.org/2000/svg"
   xmlns="http://www.w3.org/2000/svg"
   xmlns:xlink="http://www.w3.org/1999/xlink"
   xmlns:sodipodi="http://sodipodi.sourceforge.net/DTD/sodipodi-0.dtd"
   xmlns:inkscape="http://www.inkscape.org/namespaces/inkscape"
   width="512"
   height="512"
   viewBox="0 0 135.46666 135.46666"
   version="1.1"
   id="svg8"
   inkscape:version="1.0.1 (3bc2e813f5, 2020-09-07)"
   sodipodi:docname="constraint_browse.svg"
   inkscape:export-filename="D:\Developer\openHELIOS\res\new.png"
   inkscape:export-xdpi="96"
   inkscape:export-ydpi="96">
  <defs
     id="defs2">
    <linearGradient
       inkscape:collect="always"
       id="linearGradient1157">
      <stop
         style="stop-color:#d5e5ff;stop-opacity:1"
         offset="0"
         id="stop1153" />
      <stop
         style="stop-color:#0066ff;stop-opacity:1"
         offset="1"
         id="stop1155" />
    </linearGradient>
    <linearGradient
       inkscape:collect="always"
       id="linearGradient1147">
      <stop
         style="stop-color:#ffffff;stop-opacity:1"
         offset="0"
         id="stop1143" />
      <stop
         style="stop-color:#999999;stop-opacity:1"
         offset="1"
         id="stop1145" />
    </linearGradient>
    <linearGradient
       inkscape:collect="always"
       id="linearGradient1139">
      <stop
         style="stop-color:#784421;stop-opacity:1"
         offset="0"
         id="stop1135" />
      <stop
         style="stop-color:#502d16;stop-opacity:1"
         offset="1"
         id="stop1137" />
    </linearGradient>
    <linearGradient
       inkscape:collect="always"
       id="linearGradient1093">
      <stop
         style="stop-color:#cccccc;stop-opacity:1"
         offset="0"
         id="stop1089" />
      <stop
         style="stop-color:#808080;stop-opacity:1"
         offset="1"
         id="stop1091" />
    </linearGradient>
    <inkscape:path-effect
       effect="bspline"
       id="path-effect856"
       is_visible="true"
       lpeversion="1"
       weight="33.333333"
       steps="2"
       helper_size="0"
       apply_no_weight="true"
       apply_with_weight="true"
       only_selected="false" />
    <linearGradient
       inkscape:collect="always"
       xlink:href="#linearGradient1093"
       id="linearGradient1095"
       x1="84.554115"
       y1="10.42448"
       x2="25.250408"
       y2="98.453423"
       gradientUnits="userSpaceOnUse" />
    <linearGradient
       inkscape:collect="always"
       xlink:href="#linearGradient1139"
       id="linearGradient1141"
       x1="249.04758"
       y1="102.64155"
       x2="263.97101"
       y2="139.5722"
       gradientUnits="userSpaceOnUse"
       gradientTransform="matrix(1.3334234,0,0,1.3334234,-67.700889,-90.768357)" />
    <radialGradient
       inkscape:collect="always"
       xlink:href="#linearGradient1147"
       id="radialGradient1149"
       cx="807.69263"
       cy="294.62109"
       fx="807.69263"
       fy="294.62109"
       r="121.2627"
       gradientTransform="matrix(0.27373845,-0.2225689,0.16672638,0.20505876,-54.021278,131.46911)"
       gradientUnits="userSpaceOnUse" />
    <radialGradient
       inkscape:collect="always"
       xlink:href="#linearGradient1157"
       id="radialGradient1159"
       cx="213.70197"
       cy="77.951828"
       fx="213.70197"
       fy="77.951828"
       r="26.584644"
       gradientUnits="userSpaceOnUse"
       gradientTransform="matrix(0.93582751,-0.75988764,0.8405329,1.0351439,-49.31289,93.814624)" />
    <linearGradient
       inkscape:collect="always"
       xlink:href="#linearGradient1093"
       id="linearGradient1188"
       gradientUnits="userSpaceOnUse"
       x1="84.554115"
       y1="10.42448"
       x2="25.250408"
       y2="98.453423" />
    <linearGradient
       inkscape:collect="always"
       xlink:href="#linearGradient1093"
       id="linearGradient1190"
       gradientUnits="userSpaceOnUse"
       x1="84.554115"
       y1="10.42448"
       x2="25.250408"
       y2="98.453423" />
  </defs>
  <sodipodi:namedview
     id="base"
     pagecolor="#ffffff"
     bordercolor="#666666"
     borderopacity="1.0"
     inkscape:pageopacity="0.0"
     inkscape:pageshadow="2"
     inkscape:zoom="1.1421432"
     inkscape:cx="602.07658"
     inkscape:cy="193.31727"
     inkscape:document-units="px"
     inkscape:current-layer="layer1"
     inkscape:document-rotation="0"
     showgrid="false"
     units="px"
     width="256mm"
     inkscape:window-width="2560"
     inkscape:window-height="1017"
     inkscape:window-x="-8"
     inkscape:window-y="-8"
     inkscape:window-maximized="1"
     showguides="true"
     inkscape:snap-object-midpoints="true"
     inkscape:snap-center="true"
     inkscape:snap-page="true"
     inkscape:guide-bbox="true"
     inkscape:object-paths="true"
     inkscape:snap-intersection-paths="true"
     inkscape:snap-smooth-nodes="true"
     inkscape:snap-midpoints="true"
     inkscape:snap-bbox="true"
     inkscape:bbox-paths="true"
     inkscape:bbox-nodes="true"
     inkscape:snap-bbox-edge-midpoints="true"
     inkscape:snap-bbox-midpoints="true">
    <sodipodi:guide
       position="67.73333,67.73333"
       orientation="-1,0"
       id="guide869"
       inkscape:label=""
       inkscape:locked="false"
       inkscape:color="rgb(0,0,255)" />
  </sodipodi:namedview>
  <metadata
     id="metadata5">
    <rdf:RDF>
      <cc:Work
         rdf:about="">
        <dc:format>image/svg+xml</dc:format>
        <dc:type
           rdf:resource="http://purl.org/dc/dcmitype/StillImage" />
        <dc:title />
      </cc:Work>
    </rdf:RDF>
  </metadata>
  <g
     inkscape:label="Layer 1"
     inkscape:groupmode="layer"
     id="layer1">
    <g
       id="g1195"
       transform="matrix(0.93915124,0,0,0.93915124,-4.8882856,-5.3218824)">
      <g
         id="g1087"
         style="fill:url(#linearGradient1095);fill-opacity:1;stroke:#000000;stroke-width:2.64583;stroke-miterlimit:4;stroke-dasharray:none"
         transform="matrix(1.0434419,0,0,1.0434419,1.8286318,2.9969299)">
        <path
           id="path969-3"
           style="fill:url(#linearGradient1188);fill-opacity:1;stroke:#000000;stroke-width:2.64583;stroke-linecap:round;stroke-miterlimit:4;stroke-dasharray:none;stroke-dashoffset:31.5;stroke-opacity:0.996078"
           d="M 49.011843,36.871179 C 37.580806,36.900791 31.846554,44.601948 22.907274,53.698289 14.844706,61.390394 5.7913287,68.363024 5.791378,79.928578 5.7916705,93.425036 16.732614,104.36595 30.229046,104.36626 41.683649,104.36605 49.190761,95.434684 56.507478,88.200212 61.49364,83.22109 66.894739,78.47569 70.241447,72.789511 c -2.395902,0.689265 -4.931054,1.07946 -7.639039,1.079498 -2.057508,-3.8e-5 -4.066402,-0.204545 -6.013401,-0.581491 -1.111659,1.124394 -2.274767,2.227252 -3.400588,3.351475 -4.131716,4.085275 -16.406518,16.944869 -22.874898,16.944982 -7.621396,-1.54e-4 -13.800598,-6.178389 -13.800763,-13.79978 -3e-5,-6.531043 13.148413,-18.284638 17.701322,-22.628347 5.047991,-5.136675 8.286705,-9.48468 14.741773,-9.501413 0.0114,-9e-6 0.02319,-9e-6 0.03536,0 7.113921,1.62e-4 12.968643,5.38396 13.717275,12.298893 9.91e-4,0 0.002,0 0.0031,0 2.763752,-4.6e-5 6.349384,-1.824697 10.102556,-4.44964 C 70.207771,44.810533 60.57134,36.87142 49.075819,36.871179 c -0.02129,-3.1e-5 -0.04256,-3.1e-5 -0.06384,0 z" />
        <path
           id="path969-3-5"
           style="fill:url(#linearGradient1190);fill-opacity:1;stroke:#000000;stroke-width:2.64583;stroke-linecap:round;stroke-miterlimit:4;stroke-dasharray:none;stroke-dashoffset:31.5;stroke-opacity:0.996078"
           d="M 63.10488,72.824467 C 74.535913,72.794814 80.270165,65.093702 89.209452,55.997359 97.272021,48.305254 106.32541,41.332622 106.32535,29.767061 106.32506,16.270626 95.384115,5.329698 81.887673,5.3293922 70.433078,5.3296026 62.925963,14.260977 55.609246,21.495441 c -4.986164,4.97911 -10.387261,9.724524 -13.733973,15.410693 2.395905,-0.689264 4.931057,-1.079457 7.639042,-1.079503 2.057507,4e-5 4.066403,0.204561 6.013402,0.581498 1.111659,-1.124398 2.274767,-2.227246 3.40059,-3.351479 4.131713,-4.085275 16.406512,-16.944865 22.874893,-16.944981 7.621397,1.56e-4 13.800597,6.178393 13.800772,13.799786 3.1e-5,6.531038 -13.148417,18.284636 -17.701323,22.628347 -5.047994,5.136675 -8.286711,9.484679 -14.741779,9.50141 -0.0114,1.1e-5 -0.02319,1.1e-5 -0.03536,0 -7.113921,-1.6e-4 -12.968641,-5.383959 -13.717274,-12.298891 -0.001,0 -0.0021,0 -0.0031,0 -2.763754,4.6e-5 -6.349386,1.824697 -10.102558,4.449641 2.606372,10.693154 12.242807,18.632257 23.738328,18.632505 0.02127,3.8e-5 0.04253,3.8e-5 0.06384,0 z" />
      </g>
    </g>
    <g
       id="g1200"
       transform="translate(-165.40182,37.959245)">
      <path
         id="path1133"
         style="fill:url(#linearGradient1141);fill-opacity:1;stroke:#000000;stroke-width:2.1168;stroke-linecap:butt;stroke-linejoin:miter;stroke-miterlimit:4;stroke-dasharray:none;stroke-opacity:1"
         d="m 244.6781,30.887564 c -1.24668,0.02001 -9.71101,8.509882 -9.71101,9.711006 0,0.594647 5.93875,6.912097 12.12068,13.141169 -1.04297,1.270548 -1.72404,2.267354 -1.72404,2.679777 0,1.814746 36.5953,38.905087 38.92049,38.921193 2.32515,0.01607 14.69799,-12.768133 14.67226,-14.67299 -0.0258,-1.904857 -37.03688,-38.950733 -38.92048,-38.920477 -0.37161,0.0061 -1.17674,0.522247 -2.21537,1.34161 -6.21807,-6.214346 -12.52577,-12.211194 -13.14253,-12.201288 z" />
      <circle
         style="opacity:0.416129;fill:url(#radialGradient1159);fill-opacity:1;stroke:none;stroke-width:3.52801;stroke-linecap:round;stroke-miterlimit:4;stroke-dasharray:none;stroke-dashoffset:31.5;stroke-opacity:0.996078"
         id="path1151"
         cx="216.19637"
         cy="12.116481"
         r="35.448589" />
      <path
         id="path1097"
         style="fill:url(#radialGradient1149);fill-opacity:1;stroke:#000000;stroke-width:2.1168;stroke-linecap:round;stroke-miterlimit:4;stroke-dasharray:none;stroke-dashoffset:31.5;stroke-opacity:0.996078"
         d="M 216.196,-30.665536 A 42.781871,42.781871 0 0 0 173.41469,12.116485 42.781871,42.781871 0 0 0 216.196,54.898505 42.781871,42.781871 0 0 0 258.97803,12.116485 42.781871,42.781871 0 0 0 216.196,-30.665536 Z m -0.0117,10.734265 a 32.047783,32.047783 0 0 1 0.0117,0 32.047783,32.047783 0 0 1 32.04777,32.047756 32.047783,32.047783 0 0 1 -32.04777,32.047748 32.047783,32.047783 0 0 1 -32.04775,-32.047748 32.047783,32.047783 0 0 1 32.03742,-32.047756 z" />
    </g>
  </g>
</svg>
