<?xml version="1.0" encoding="UTF-8" standalone="no"?>
<svg
   xmlns:dc="http://purl.org/dc/elements/1.1/"
   xmlns:cc="http://creativecommons.org/ns#"
   xmlns:rdf="http://www.w3.org/1999/02/22-rdf-syntax-ns#"
   xmlns:svg="http://www.w3.org/2000/svg"
   xmlns="http://www.w3.org/2000/svg"
   xmlns:xlink="http://www.w3.org/1999/xlink"
   xmlns:sodipodi="http://sodipodi.sourceforge.net/DTD/sodipodi-0.dtd"
   xmlns:inkscape="http://www.inkscape.org/namespaces/inkscape"
   width="512"
   height="512"
   viewBox="0 0 135.46666 135.46666"
   version="1.1"
   id="svg8"
   inkscape:version="1.0.1 (3bc2e813f5, 2020-09-07)"
   sodipodi:docname="open.svg"
   inkscape:export-filename="D:\Developer\openHELIOS\res\new.png"
   inkscape:export-xdpi="96"
   inkscape:export-ydpi="96">
  <defs
     id="defs2">
    <linearGradient
       inkscape:collect="always"
       id="linearGradient912">
      <stop
         style="stop-color:#ffffff;stop-opacity:1"
         offset="0"
         id="stop908" />
      <stop
         style="stop-color:#ececec;stop-opacity:1"
         offset="1"
         id="stop910" />
    </linearGradient>
    <linearGradient
       inkscape:collect="always"
       id="linearGradient63">
      <stop
         style="stop-color:#ffe680;stop-opacity:1"
         offset="0"
         id="stop59" />
      <stop
         style="stop-color:#f9f9f9;stop-opacity:1"
         offset="1"
         id="stop61" />
    </linearGradient>
    <linearGradient
       inkscape:collect="always"
       id="linearGradient53">
      <stop
         style="stop-color:#ffcc00;stop-opacity:1"
         offset="0"
         id="stop49" />
      <stop
         style="stop-color:#f9f9f9;stop-opacity:1"
         offset="1"
         id="stop51" />
    </linearGradient>
    <linearGradient
       inkscape:collect="always"
       xlink:href="#linearGradient53"
       id="linearGradient55"
       x1="111.11678"
       y1="146.47212"
       x2="334.3605"
       y2="346.48233"
       gradientUnits="userSpaceOnUse"
       gradientTransform="matrix(0.28974597,0,0,0.30274504,-8.9636309,-7.3258479)" />
    <linearGradient
       inkscape:collect="always"
       xlink:href="#linearGradient63"
       id="linearGradient65"
       x1="201.02036"
       y1="389.91888"
       x2="431.33514"
       y2="260.61935"
       gradientUnits="userSpaceOnUse"
       gradientTransform="matrix(0.28974597,0,0,0.30274504,-8.9636309,-7.3258479)" />
    <linearGradient
       inkscape:collect="always"
       xlink:href="#linearGradient912"
       id="linearGradient906"
       x1="54.790249"
       y1="22.985178"
       x2="104.76965"
       y2="48.643051"
       gradientUnits="userSpaceOnUse"
       gradientTransform="matrix(1.4124538,0,3.5069312e-8,1.479002,-34.301338,-30.300711)" />
  </defs>
  <sodipodi:namedview
     id="base"
     pagecolor="#ffffff"
     bordercolor="#666666"
     borderopacity="1.0"
     inkscape:pageopacity="0.0"
     inkscape:pageshadow="2"
     inkscape:zoom="0.98994949"
     inkscape:cx="141.12989"
     inkscape:cy="326.31597"
     inkscape:document-units="px"
     inkscape:current-layer="layer1"
     inkscape:document-rotation="0"
     showgrid="false"
     units="px"
     width="256mm"
     inkscape:window-width="2560"
     inkscape:window-height="1017"
     inkscape:window-x="-8"
     inkscape:window-y="-8"
     inkscape:window-maximized="1"
     showguides="false" />
  <metadata
     id="metadata5">
    <rdf:RDF>
      <cc:Work
         rdf:about="">
        <dc:format>image/svg+xml</dc:format>
        <dc:type
           rdf:resource="http://purl.org/dc/dcmitype/StillImage" />
        <dc:title />
      </cc:Work>
    </rdf:RDF>
  </metadata>
  <g
     inkscape:label="Layer 1"
     inkscape:groupmode="layer"
     id="layer1"
     style="display:inline">
    <path
       style="fill:none;stroke:#000000;stroke-width:0.341628px;stroke-linecap:butt;stroke-linejoin:miter;stroke-opacity:1"
       d="M 9.6516629,25.420812 8.6198097,109.21261 42.326956,75.972888 69.842997,75.626637 77.753859,66.624215 c 9.157466,-0.05655 18.237052,-0.112627 27.166851,-0.167781 m 0,0 c 9.84662,-0.06082 19.51113,-0.120494 28.89707,-0.178468 l -38.866399,47.435854 -82.548116,0.34625 -3.7834553,-4.84746"
       id="path41"
       sodipodi:nodetypes="ccccccccccc" />
    <path
       style="fill:none;stroke:#000000;stroke-width:0.341628px;stroke-linecap:butt;stroke-linejoin:miter;stroke-opacity:1"
       d="m 9.6516629,25.420812 45.7454121,0.346249 8.598761,9.002422 h 40.242204 l 0.68267,31.686951"
       id="path43"
       sodipodi:nodetypes="ccccc" />
    <path
       style="display:inline;fill:url(#linearGradient55);fill-opacity:1;stroke:#000000;stroke-width:1.1847;stroke-miterlimit:4;stroke-dasharray:none"
       d="m 8.9585409,105.94907 c 0.00345,-1.3225 0.198356,-16.716854 0.4330504,-34.209681 C 9.6262867,54.24656 9.8210004,36.73008 9.8242907,32.813879 l 0.00601,-7.120366 22.6101183,0.197725 22.610121,0.197726 4.393746,4.552547 4.393749,4.552547 h 20.076075 20.07607 l 0.19358,12.003383 c 0.10648,6.601859 0.27413,13.531057 0.37257,15.398219 l 0.17896,3.394831 -13.5739,0.211292 -13.5739,0.211292 -1.466654,1.59279 c -0.806662,0.876038 -2.587327,2.873965 -3.957037,4.439844 l -2.490416,2.847047 -13.763463,0.18251 -13.763464,0.18251 -13.158045,12.978498 c -7.236924,7.138174 -14.70563,14.494746 -16.597124,16.347916 l -3.439078,3.36942 z"
       id="path47" />
  </g>
  <g
     inkscape:groupmode="layer"
     id="layer2"
     inkscape:label="Layer 2">
    <rect
       style="display:inline;opacity:1;fill:url(#linearGradient906);fill-opacity:1;stroke:#000000;stroke-width:0.764829;stroke-miterlimit:4;stroke-dasharray:none;stroke-opacity:1"
       id="rect890"
       width="85.316315"
       height="54.550308"
       x="33.649708"
       y="-1.4443787"
       transform="matrix(0.83276812,0.55362195,-0.47901554,0.87780642,0,0)" />
  </g>
  <g
     inkscape:groupmode="layer"
     id="layer3"
     inkscape:label="Layer 3">
    <path
       style="display:inline;opacity:1;fill:url(#linearGradient65);fill-opacity:1;stroke:#000000;stroke-width:1.1847;stroke-miterlimit:4;stroke-dasharray:none;stroke-opacity:1"
       d="M 11.033994,111.78217 C 10.16675,110.64663 9.4423477,109.5513 9.4242125,109.3481 9.4060803,109.14491 16.850055,101.61803 25.966386,92.621701 l 16.575147,-16.356963 13.69653,-0.161073 13.696528,-0.161072 1.784723,-1.948695 c 0.981599,-1.071778 2.780567,-3.092201 3.997712,-4.489827 l 2.21299,-2.541132 27.414524,-0.183906 c 15.078,-0.10115 27.41453,-0.08967 27.41453,0.02549 0,0.115177 -8.56816,10.66509 -19.04033,23.444255 L 94.678396,113.48363 H 72.49805 c -12.199186,0 -30.664395,0.0817 -41.033794,0.18157 l -18.853452,0.18158 z"
       id="path57" />
  </g>
</svg>
