<?xml version="1.0" encoding="UTF-8" standalone="no"?>
<svg
   xmlns:dc="http://purl.org/dc/elements/1.1/"
   xmlns:cc="http://creativecommons.org/ns#"
   xmlns:rdf="http://www.w3.org/1999/02/22-rdf-syntax-ns#"
   xmlns:svg="http://www.w3.org/2000/svg"
   xmlns="http://www.w3.org/2000/svg"
   xmlns:xlink="http://www.w3.org/1999/xlink"
   xmlns:sodipodi="http://sodipodi.sourceforge.net/DTD/sodipodi-0.dtd"
   xmlns:inkscape="http://www.inkscape.org/namespaces/inkscape"
   width="512"
   height="512"
   viewBox="0 0 135.46666 135.46666"
   version="1.1"
   id="svg8"
   inkscape:version="1.0.1 (3bc2e813f5, 2020-09-07)"
   sodipodi:docname="file_export.svg"
   inkscape:export-filename="D:\Developer\openHELIOS\res\new.png"
   inkscape:export-xdpi="96"
   inkscape:export-ydpi="96">
  <defs
     id="defs2">
    <linearGradient
       inkscape:collect="always"
       id="linearGradient1164">
      <stop
         style="stop-color:#0044aa;stop-opacity:1"
         offset="0"
         id="stop1160" />
      <stop
         style="stop-color:#72a9fa;stop-opacity:1"
         offset="1"
         id="stop1162" />
    </linearGradient>
    <linearGradient
       inkscape:collect="always"
       id="linearGradient1140">
      <stop
         style="stop-color:#0055d4;stop-opacity:1"
         offset="0"
         id="stop1136" />
      <stop
         style="stop-color:#80b3ff;stop-opacity:1"
         offset="1"
         id="stop1138" />
    </linearGradient>
    <linearGradient
       inkscape:collect="always"
       id="linearGradient1130">
      <stop
         style="stop-color:#b3b3b3;stop-opacity:1"
         offset="0"
         id="stop1126" />
      <stop
         style="stop-color:#ffffff;stop-opacity:1"
         offset="1"
         id="stop1128" />
    </linearGradient>
    <linearGradient
       inkscape:collect="always"
       xlink:href="#linearGradient1130"
       id="linearGradient1132"
       x1="161.42857"
       y1="425.71429"
       x2="381.42856"
       y2="76.428574"
       gradientUnits="userSpaceOnUse"
       gradientTransform="matrix(0.26458332,0,0,0.26458332,-27.214282,0.94494041)" />
    <linearGradient
       inkscape:collect="always"
       xlink:href="#linearGradient1140"
       id="linearGradient1142"
       x1="118.30654"
       y1="77.107147"
       x2="164.79761"
       y2="70.870529"
       gradientUnits="userSpaceOnUse"
       gradientTransform="translate(-38.36458,-0.75595239)" />
    <linearGradient
       inkscape:collect="always"
       xlink:href="#linearGradient1164"
       id="linearGradient1166"
       x1="31.805073"
       y1="80.073944"
       x2="70.719513"
       y2="72.590401"
       gradientUnits="userSpaceOnUse" />
  </defs>
  <sodipodi:namedview
     id="base"
     pagecolor="#ffffff"
     bordercolor="#666666"
     borderopacity="1.0"
     inkscape:pageopacity="0.0"
     inkscape:pageshadow="2"
     inkscape:zoom="1.4142136"
     inkscape:cx="465.63798"
     inkscape:cy="291.91046"
     inkscape:document-units="px"
     inkscape:current-layer="layer1"
     inkscape:document-rotation="0"
     showgrid="false"
     units="px"
     width="256mm"
     inkscape:window-width="2560"
     inkscape:window-height="1017"
     inkscape:window-x="-8"
     inkscape:window-y="-8"
     inkscape:window-maximized="1"
     showguides="true" />
  <metadata
     id="metadata5">
    <rdf:RDF>
      <cc:Work
         rdf:about="">
        <dc:format>image/svg+xml</dc:format>
        <dc:type
           rdf:resource="http://purl.org/dc/dcmitype/StillImage" />
        <dc:title />
      </cc:Work>
    </rdf:RDF>
  </metadata>
  <g
     inkscape:label="Layer 1"
     inkscape:groupmode="layer"
     id="layer1">
    <path
       style="fill:none;stroke:none;stroke-width:0.267269"
       d="M 44.597697,68.955535 V 9.3544333 H 84.287222 123.97674 V 68.955535 128.55664 H 84.287222 44.597697 Z"
       id="path14" />
    <path
       style="fill:none;stroke-width:0.267269"
       d="M 44.597697,68.955535 V 9.3544333 H 84.287222 123.97674 V 68.955535 128.55664 H 84.287222 44.597697 Z"
       id="path16" />
    <path
       style="fill:url(#linearGradient1132);fill-opacity:1;stroke:#000000;stroke-width:0.79374996;stroke-miterlimit:4;stroke-dasharray:none"
       d="m 6.9231884,8.252751 c -0.13521,10.114602 -0.0193,20.272019 -0.058,30.403089 0,29.293154 0,58.586306 0,87.87946 0.81183,0.61113 2.24231,0.093 3.2884596,0.26466 25.00943,0 50.01885,0 75.028271,0 0.61113,-0.81183 0.093,-2.24231 0.26466,-3.28846 0,-31.183042 0,-62.366078 0,-93.549111 -0.56612,-0.567034 -1.70806,-0.10037 -2.49519,-0.280845 -5.096271,-0.153413 -10.204961,-0.198718 -15.292211,-0.516819 0.0898,-6.914552 0.1796,-13.829105 0.26946,-20.7436564 -0.80605,-0.6176234 -2.24308,-0.095039 -3.28847,-0.2679792 -19.17011,0 -38.34021,0 -57.5103296,0 l -0.17023,0.082077 z"
       id="path1124" />
    <path
       id="path940"
       style="fill:url(#linearGradient1142);fill-opacity:1;stroke:#000000;stroke-width:0.79375;stroke-miterlimit:4;stroke-dasharray:none"
       d="m 86.265234,46.095816 a 11.791701,11.797129 0 0 0 -11.79182,11.797216 11.791701,11.797129 0 0 0 11.79182,11.797216 11.791701,11.797129 0 0 0 9.64906,-5.016363 l 12.298236,5.596958 a 11.791701,11.797129 0 0 0 -0.40628,3.069488 11.791701,11.797129 0 0 0 0.7816,4.222866 l -13.074586,7.380735 a 11.791701,11.797129 0 0 0 -9.70475,-5.096443 11.791701,11.797129 0 0 0 -11.79182,11.797216 11.791701,11.797129 0 0 0 11.79182,11.797215 11.791701,11.797129 0 0 0 11.79158,-11.797215 11.791701,11.797129 0 0 0 -0.33037,-2.773575 L 110.8225,81.220115 a 11.791701,11.797129 0 0 0 8.77533,3.917187 11.791701,11.797129 0 0 0 11.79182,-11.796971 11.791701,11.797129 0 0 0 -11.79182,-11.797216 11.791701,11.797129 0 0 0 -9.54294,4.867673 L 97.696484,60.786485 a 11.791701,11.797129 0 0 0 0.36033,-2.893453 11.791701,11.797129 0 0 0 -11.79158,-11.797216 z" />
    <path
       style="fill:url(#linearGradient1166);stroke:#000000;stroke-width:0.79374996;stroke-linecap:butt;stroke-linejoin:miter;stroke-opacity:1;stroke-miterlimit:4;stroke-dasharray:none;fill-opacity:1"
       d="m 25.510543,84.386978 c -0.194681,-0.336628 0.09069,-0.913006 0.385124,-1.37279 3.83576,-5.989779 15.677586,-13.66413 26.548528,-15.261959 l 0.069,-4.001974 c 0,0 -0.04247,-1.309956 0.493215,-1.525453 0.832555,-0.334927 2.741246,0.9335 2.741246,0.9335 l 20.382932,10.203616 c 0,0 0.803209,0.509446 0.787562,0.9104 -0.01321,0.338444 -0.722641,0.714322 -0.722641,0.714322 L 54.658747,85.880658 c 0,0 -0.897336,0.350609 -1.318548,0.207323 -0.367082,-0.124872 -0.800563,-0.843908 -0.800563,-0.843908 l 0.0907,-4.827742 c -8.22198,-3.299244 -19.171904,0.983234 -25.763371,4.204746 -0.6421,0.31382 -1.229157,-0.01404 -1.356422,-0.234099 z"
       id="path1158"
       sodipodi:nodetypes="ssccsccsccsccss" />
    <path
       style="fill:#ffffff;stroke:#000000;stroke-width:0.79374996;stroke-linecap:butt;stroke-linejoin:bevel;stroke-opacity:1;stroke-miterlimit:4;stroke-dasharray:none"
       d="M 67.928637,8.4210685 85.44658,29.962389 67.659178,29.164726 Z"
       id="path848" />
  </g>
</svg>
